<svg width="1200" height="630" viewBox="0 0 1200 630" fill="none" xmlns="http://www.w3.org/2000/svg">
<rect width="1200" height="630" fill="white"/>
<path fill-rule="evenodd" clip-rule="evenodd" d="M559.417 138.531C559.417 125.883 570.987 116.398 583.389 118.878L743.722 150.945C753.089 152.818 759.833 161.044 759.833 170.597V270.012C759.833 282.66 748.263 292.146 735.861 289.664L599.5 262.392V424.729C599.5 474.539 559.122 514.917 509.312 514.917C459.503 514.917 419.125 474.539 419.125 424.729C419.125 374.92 459.503 334.542 509.312 334.542C527.852 334.542 545.086 340.137 559.417 349.729V138.531ZM719.75 245.565L599.5 221.515V162.978L719.75 187.028V245.565ZM559.417 424.729C559.417 397.058 536.984 374.625 509.312 374.625C481.641 374.625 459.208 397.058 459.208 424.729C459.208 452.401 481.641 474.833 509.312 474.833C536.984 474.833 559.417 452.401 559.417 424.729Z" fill="black"/>
</svg>
