<svg width="256" height="256" viewBox="0 0 256 256" fill="none" xmlns="http://www.w3.org/2000/svg">
<g clip-path="url(#clip0_1018_2)">
<circle cx="128" cy="128" r="128" fill="white"/>
<path fill-rule="evenodd" clip-rule="evenodd" d="M111.667 56.2952C111.667 51.1417 116.381 47.2764 121.435 48.2871L186.768 61.3538C190.585 62.1173 193.333 65.469 193.333 69.3619V109.872C193.333 115.026 188.619 118.891 183.565 117.88L128 106.767V172.917C128 193.213 111.546 209.667 91.25 209.667C70.9535 209.667 54.5 193.213 54.5 172.917C54.5 152.62 70.9535 136.167 91.25 136.167C98.8047 136.167 105.827 138.447 111.667 142.355V56.2952ZM177 99.91L128 90.11V66.257L177 76.057V99.91ZM111.667 172.917C111.667 161.641 102.526 152.5 91.25 152.5C79.9742 152.5 70.8333 161.641 70.8333 172.917C70.8333 184.192 79.9742 193.333 91.25 193.333C102.526 193.333 111.667 184.192 111.667 172.917Z" fill="black"/>
</g>
<defs>
<clipPath id="clip0_1018_2">
<rect width="256" height="256" fill="white"/>
</clipPath>
</defs>
</svg>
